<!DOCTYPE svg PUBLIC "-//W3C//DTD SVG 20010904//EN" "http://www.w3.org/TR/2001/REC-SVG-20010904/DTD/svg10.dtd">
<svg version="1.0" xmlns="http://www.w3.org/2000/svg" width="1000px" height="1000px" viewBox="0 0 10000 10000" preserveAspectRatio="xMidYMid meet">
<g id="layer101" fill="#040404" stroke="none">
 <path d="M0 5000 l0 -5000 5000 0 5000 0 0 5000 0 5000 -5000 0 -5000 0 0 -5000z"/>
 </g>
<g id="layer102" fill="#ffffff" stroke="none">
 <path d="M0 5000 l0 -5000 5000 0 5000 0 0 5000 0 5000 -5000 0 -5000 0 0 -5000z m5300 4550 c1445 -101 2732 -855 3523 -2065 1111 -1701 951 -3960 -390 -5485 -780 -887 -1822 -1420 -3013 -1542 -163 -17 -677 -17 -840 0 -1191 122 -2233 655 -3013 1542 -535 608 -905 1372 -1051 2170 -334 1826 453 3647 2015 4663 807 525 1806 784 2769 717z"/>
 <path d="M4750 9254 c-303 -26 -468 -50 -690 -99 -1353 -302 -2492 -1271 -3012 -2565 -144 -358 -236 -724 -285 -1138 -24 -206 -24 -698 0 -904 119 -1008 534 -1871 1236 -2568 704 -700 1569 -1108 2591 -1222 151 -17 669 -17 820 0 493 55 903 164 1330 354 666 296 1269 785 1703 1380 385 528 639 1127 752 1769 48 275 59 413 59 739 0 392 -30 655 -113 1004 -233 969 -821 1848 -1633 2439 -607 442 -1283 703 -2052 793 -123 14 -605 27 -706 18z m2307 -2176 c-2 -395 -8 -675 -14 -693 -7 -22 -17 -31 -35 -33 -53 -6 -53 -10 -56 676 l-3 632 -1955 0 c-1555 0 -1955 -3 -1959 -12 -15 -46 -28 -301 -35 -733 -5 -275 -13 -513 -18 -530 -10 -34 -36 -44 -47 -18 -15 36 -24 358 -24 861 l-1 512 2076 0 2076 0 -5 -662z m-4618 -1458 c62 0 68 -10 47 -77 -26 -83 -132 -348 -318 -795 l-161 -386 -86 -7 c-47 -3 -104 -7 -126 -8 l-40 -2 -143 345 c-256 621 -365 898 -358 915 5 15 19 17 106 13 143 -5 141 -3 224 -225 l28 -73 121 1 c67 1 187 4 266 8 l143 6 48 124 c27 68 56 131 64 139 18 18 81 32 120 26 16 -2 45 -4 65 -4z m596 0 c99 -5 205 -14 235 -21 89 -18 185 -75 279 -165 149 -142 190 -239 190 -449 0 -210 -41 -307 -190 -449 -92 -88 -194 -148 -284 -167 -27 -6 -193 -13 -367 -16 l-318 -5 0 641 0 641 138 0 c75 0 218 -5 317 -10z m901 -15 c11 -7 48 -72 82 -147 l62 -133 258 -3 259 -2 44 115 c52 136 70 163 124 175 51 12 176 12 194 1 15 -10 -73 -237 -354 -912 l-148 -356 -76 5 c-42 2 -98 7 -126 11 l-50 6 -133 320 c-276 667 -370 910 -357 923 9 10 113 18 160 14 22 -3 49 -10 61 -17z m2064 -115 l0 -140 -345 0 -345 0 0 -115 0 -115 345 0 345 0 0 -135 0 -135 -345 0 -345 0 0 -115 0 -115 345 0 345 0 0 -135 0 -135 -485 0 -485 0 0 640 0 640 485 0 485 0 0 -140z m1708 124 l62 -6 1 -76 c1 -42 5 -151 8 -242 l6 -165 263 -3 262 -2 0 255 0 255 73 -5 c39 -3 100 -8 135 -11 l62 -6 0 -623 0 -623 -87 -6 c-49 -4 -109 -8 -135 -11 l-48 -4 0 255 0 254 -262 -2 -263 -3 -8 -240 c-5 -132 -9 -241 -11 -242 -5 -5 -251 -20 -258 -16 -9 5 -11 1267 -2 1276 6 6 55 3 202 -9z m-763 -28 c110 -35 195 -88 274 -171 78 -83 124 -165 151 -271 38 -146 19 -306 -52 -452 -45 -92 -168 -215 -263 -264 -140 -72 -364 -89 -515 -38 -374 126 -538 556 -345 905 144 260 462 383 750 291z m-3925 -2614 l5 -657 1960 0 1960 0 5 647 c3 411 9 651 15 657 6 5 22 13 37 16 51 13 52 9 56 -727 l4 -678 -2076 0 -2076 0 0 518 c1 530 10 806 29 855 12 30 50 51 66 35 6 -6 12 -248 15 -666z"/>
 <path d="M1766 5027 c-16 -11 -13 -21 34 -137 52 -126 65 -150 81 -150 12 0 52 82 98 200 l39 100 -117 0 c-79 0 -123 -4 -135 -13z"/>
 <path d="M2860 4985 l0 -368 158 6 c278 10 381 67 452 246 57 144 -11 338 -146 417 -70 41 -138 55 -306 61 l-158 6 0 -368z"/>
 <path d="M4200 5034 c0 -6 110 -285 117 -297 14 -24 83 99 129 231 17 46 17 54 4 62 -16 10 -250 14 -250 4z"/>
 <path d="M6673 5339 c-67 -9 -128 -45 -187 -111 -95 -104 -126 -194 -105 -298 52 -256 361 -384 578 -239 231 154 206 498 -46 616 -60 28 -163 41 -240 32z"/>
 </g>

</svg>